<svg width="12" height="14" viewBox="0 0 12 14" fill="none" xmlns="http://www.w3.org/2000/svg">
<path fill-rule="evenodd" clip-rule="evenodd" d="M6.38869 0.67193C6.08293 0.505947 5.71289 0.510804 5.41159 0.684756L0.526401 3.50522L5.88702 6.33444L11.2131 3.29095L6.38869 0.67193ZM5.39659 13.4494V7.20633L0.123047 4.42307V9.82742C0.123047 10.1847 0.313646 10.5148 0.623047 10.6934L5.39659 13.4494Z" fill="#5E6673"/>
<path fill-rule="evenodd" clip-rule="evenodd" d="M5.4138 0.683594C5.41307 0.684017 5.41233 0.684441 5.41159 0.684866L0.606142 3.45929C0.611737 3.45592 0.617372 3.45259 0.623047 3.44931L5.39655 0.69333C5.40228 0.690023 5.40803 0.686778 5.4138 0.683594ZM5.39659 13.4493L5.39665 13.4494V7.20622L0.123047 4.42293V4.42318L5.39659 7.20644V13.4493ZM6.39665 7.1949L11.6617 4.1863C11.6672 4.22876 11.6701 4.27185 11.6701 4.31534V9.8273C11.6701 10.1846 11.4795 10.5147 11.1701 10.6933L6.39665 13.4493V7.1949Z" fill="#5E6673" fill-opacity="0.5"/>
</svg>
