<svg width="12" height="14" viewBox="0 0 12 14" fill="none" xmlns="http://www.w3.org/2000/svg">
<path d="M6.07619 7.58094C6.15848 7.40265 6.36973 7.32482 6.54802 7.40711C6.72632 7.4894 6.80414 7.70064 6.72186 7.87894L5.14612 11.2931C5.06383 11.4714 4.85258 11.5492 4.67429 11.4669C4.49599 11.3846 4.41817 11.1734 4.50046 10.9951L6.07619 7.58094Z" fill="#722ED1"/>
<path d="M7.19811 8.13508C7.05926 8.27393 7.05926 8.49906 7.19811 8.63791L7.99719 9.437L7.19811 10.2361C7.05926 10.3749 7.05926 10.6001 7.19811 10.7389C7.33697 10.8778 7.56209 10.8778 7.70095 10.7389L8.75144 9.68842C8.89029 9.54956 8.89029 9.32444 8.75144 9.18559L7.70095 8.13508C7.56209 7.99623 7.33697 7.99623 7.19811 8.13508Z" fill="#722ED1"/>
<path d="M4.02416 8.13509C4.16301 8.27395 4.16302 8.49907 4.02416 8.63792L3.22508 9.43702L4.02416 10.2361C4.16302 10.375 4.16301 10.6001 4.02416 10.7389C3.88531 10.8778 3.66018 10.8778 3.52133 10.7389L2.47084 9.68843C2.33199 9.54958 2.33199 9.32445 2.47084 9.1856L3.52133 8.1351C3.66018 7.99624 3.88531 7.99624 4.02416 8.13509Z" fill="#722ED1"/>
<path fill-rule="evenodd" clip-rule="evenodd" d="M5.95483 1.125V4.5C5.95483 4.67405 6.02397 4.84097 6.14705 4.96404C6.27012 5.08711 6.43704 5.15625 6.61108 5.15625H9.98608V12.875H1.23608V1.125H5.95483ZM6.07617 7.58094C6.15846 7.40264 6.3697 7.32482 6.54799 7.40711C6.72629 7.48939 6.80412 7.70064 6.72183 7.87893L5.14609 11.2931C5.0638 11.4714 4.85256 11.5492 4.67426 11.4669C4.49597 11.3846 4.41814 11.1734 4.50043 10.9951L6.07617 7.58094ZM7.19809 8.13508C7.05923 8.27393 7.05923 8.49905 7.19808 8.63791L7.99717 9.437L7.19808 10.2361C7.05923 10.3749 7.05923 10.6001 7.19809 10.7389C7.33694 10.8778 7.56207 10.8778 7.70092 10.7389L8.75141 9.68841C8.89026 9.54956 8.89026 9.32444 8.75141 9.18559L7.70092 8.13508C7.56207 7.99623 7.33694 7.99622 7.19809 8.13508ZM4.02414 8.63792C4.16299 8.49907 4.16299 8.27394 4.02413 8.13509C3.88528 7.99624 3.66015 7.99624 3.5213 8.13509L2.47081 9.1856C2.33196 9.32445 2.33196 9.54957 2.47081 9.68843L3.5213 10.7389C3.66015 10.8778 3.88528 10.8778 4.02413 10.7389C4.16299 10.6001 4.16299 10.375 4.02414 10.2361L3.22506 9.43701L4.02414 8.63792Z" fill="#EFDBFF"/>
<path d="M10.9642 3.50938L7.60171 0.146875C7.50796 0.053125 7.3814 0 7.24858 0H0.611084C0.334521 0 0.111084 0.223437 0.111084 0.5V13.5C0.111084 13.7766 0.334521 14 0.611084 14H10.6111C10.8876 14 11.1111 13.7766 11.1111 13.5V3.86406C11.1111 3.73125 11.058 3.60313 10.9642 3.50938ZM7.01733 1.15313L9.95796 4.09375H7.01733V1.15313ZM9.98608 12.875H1.23608V1.125H5.95483V4.5C5.95483 4.67405 6.02397 4.84097 6.14705 4.96404C6.27012 5.08711 6.43704 5.15625 6.61108 5.15625H9.98608V12.875Z" fill="#722ED1"/>
</svg>
