<svg width="12" height="14" viewBox="0 0 12 14" fill="none" xmlns="http://www.w3.org/2000/svg">
<path fill-rule="evenodd" clip-rule="evenodd" d="M6.17706 1.125V4.5C6.17706 4.67405 6.2462 4.84097 6.36927 4.96404C6.49234 5.08711 6.65926 5.15625 6.83331 5.15625H10.2083V12.875H1.45831V1.125H6.17706ZM7.98262 9.82552C8.00345 9.87934 8.01387 9.9401 8.01387 10.0078C8.01387 10.0929 7.99217 10.1693 7.94876 10.237C7.9071 10.3047 7.84199 10.3576 7.75345 10.3958C7.66665 10.434 7.55554 10.4531 7.42012 10.4531C7.30901 10.4531 7.20658 10.4418 7.11283 10.4193C7.02081 10.3967 6.94095 10.3602 6.87324 10.3099C6.80727 10.2595 6.75606 10.1936 6.7196 10.112C6.68314 10.0304 6.66491 9.93056 6.66491 9.8125H5.88106C5.88106 10.026 5.92533 10.2109 6.01387 10.3672C6.10241 10.5234 6.22047 10.6519 6.36804 10.7526C6.51734 10.8533 6.68314 10.9288 6.86543 10.9792C7.04772 11.0278 7.23262 11.0521 7.42012 11.0521C7.62845 11.0521 7.81682 11.0286 7.98522 10.9818C8.15363 10.9349 8.29859 10.8663 8.42012 10.776C8.54165 10.6858 8.63453 10.5755 8.69876 10.4453C8.763 10.3151 8.79512 10.1675 8.79512 10.0026C8.79512 9.84635 8.76821 9.7066 8.71439 9.58333C8.66057 9.46007 8.58071 9.34983 8.47481 9.2526C8.3689 9.15538 8.23696 9.06771 8.07897 8.98958C7.92272 8.91146 7.7413 8.84115 7.5347 8.77865C7.41144 8.74045 7.30293 8.70139 7.20918 8.66146C7.11543 8.62153 7.03644 8.57899 6.9722 8.53385C6.90797 8.48872 6.85935 8.4401 6.82637 8.38802C6.79512 8.33594 6.77949 8.27778 6.77949 8.21354C6.77949 8.12847 6.80206 8.05208 6.8472 7.98438C6.89234 7.91493 6.96005 7.86024 7.05033 7.82031C7.1406 7.77865 7.25345 7.75781 7.38887 7.75781C7.52949 7.75781 7.64581 7.78212 7.73783 7.83073C7.83158 7.87934 7.90102 7.94618 7.94616 8.03125C7.99304 8.11458 8.01647 8.21181 8.01647 8.32292H8.79251C8.79251 8.09722 8.73435 7.8967 8.61804 7.72135C8.50345 7.54601 8.34199 7.40799 8.13366 7.30729C7.92533 7.2066 7.6814 7.15625 7.40189 7.15625C7.19703 7.15625 7.00866 7.18142 6.83679 7.23177C6.66665 7.28212 6.51908 7.35417 6.39408 7.44792C6.26908 7.53993 6.17185 7.65104 6.10241 7.78125C6.03297 7.90972 5.99824 8.05295 5.99824 8.21094C5.99824 8.37413 6.03123 8.51736 6.0972 8.64062C6.16491 8.76389 6.25692 8.8724 6.37324 8.96615C6.4913 9.05816 6.62672 9.13889 6.77949 9.20833C6.93401 9.27778 7.0972 9.34028 7.26908 9.39583C7.42359 9.44444 7.54946 9.49132 7.64668 9.53646C7.7439 9.5816 7.81942 9.6276 7.87324 9.67448C7.92706 9.71962 7.96352 9.76997 7.98262 9.82552ZM4.5946 7.20833V9.83594C4.5946 9.96615 4.57376 10.0764 4.5321 10.1667C4.49217 10.2569 4.43574 10.3255 4.36283 10.3724C4.28991 10.4193 4.20397 10.4427 4.10501 10.4427C4.00258 10.4427 3.91491 10.4253 3.84199 10.3906C3.76908 10.3559 3.71265 10.2977 3.67272 10.2161C3.63453 10.1345 3.61543 10.0243 3.61543 9.88542H2.83158C2.83158 10.151 2.88626 10.3707 2.99564 10.5443C3.10501 10.7161 3.25519 10.8438 3.44616 10.9271C3.63713 11.0104 3.85675 11.0521 4.10501 11.0521C4.3446 11.0521 4.55988 11.0035 4.75085 10.9062C4.94356 10.809 5.09547 10.6701 5.20658 10.4896C5.31769 10.3073 5.37324 10.0894 5.37324 9.83594V7.20833H4.5946Z" fill="#E6F7FF"/>
<path d="M8.0139 10.0078C8.0139 9.9401 8.00348 9.87934 7.98265 9.82552C7.96355 9.76997 7.92709 9.71962 7.87327 9.67448C7.81945 9.6276 7.74393 9.5816 7.64671 9.53646C7.54949 9.49132 7.42362 9.44444 7.2691 9.39583C7.09723 9.34028 6.93403 9.27778 6.77952 9.20833C6.62674 9.13889 6.49133 9.05816 6.37327 8.96615C6.25695 8.8724 6.16494 8.76389 6.09723 8.64062C6.03126 8.51736 5.99827 8.37413 5.99827 8.21094C5.99827 8.05295 6.03299 7.90972 6.10244 7.78125C6.17188 7.65104 6.2691 7.53993 6.3941 7.44792C6.5191 7.35417 6.66667 7.28212 6.83681 7.23177C7.00869 7.18142 7.19706 7.15625 7.40192 7.15625C7.68143 7.15625 7.92535 7.2066 8.13369 7.30729C8.34202 7.40799 8.50348 7.54601 8.61806 7.72135C8.73438 7.8967 8.79254 8.09722 8.79254 8.32292H8.0165C8.0165 8.21181 7.99306 8.11458 7.94619 8.03125C7.90105 7.94618 7.8316 7.87934 7.73785 7.83073C7.64584 7.78212 7.52952 7.75781 7.3889 7.75781C7.25348 7.75781 7.14063 7.77865 7.05035 7.82031C6.96008 7.86024 6.89237 7.91493 6.84723 7.98438C6.80209 8.05208 6.77952 8.12847 6.77952 8.21354C6.77952 8.27778 6.79515 8.33594 6.8264 8.38802C6.85938 8.4401 6.90799 8.48872 6.97223 8.53385C7.03646 8.57899 7.11546 8.62153 7.20921 8.66146C7.30296 8.70139 7.41146 8.74045 7.53473 8.77865C7.74133 8.84115 7.92275 8.91146 8.079 8.98958C8.23699 9.06771 8.36893 9.15538 8.47483 9.2526C8.58074 9.34983 8.6606 9.46007 8.71442 9.58333C8.76824 9.7066 8.79515 9.84635 8.79515 10.0026C8.79515 10.1675 8.76303 10.3151 8.69879 10.4453C8.63455 10.5755 8.54167 10.6858 8.42015 10.776C8.29862 10.8663 8.15365 10.9349 7.98525 10.9818C7.81685 11.0286 7.62848 11.0521 7.42015 11.0521C7.23265 11.0521 7.04775 11.0278 6.86546 10.9792C6.68317 10.9288 6.51737 10.8533 6.36806 10.7526C6.22049 10.6519 6.10244 10.5234 6.0139 10.3672C5.92535 10.2109 5.88108 10.026 5.88108 9.8125H6.66494C6.66494 9.93056 6.68317 10.0304 6.71962 10.112C6.75608 10.1936 6.8073 10.2595 6.87327 10.3099C6.94098 10.3602 7.02084 10.3967 7.11285 10.4193C7.2066 10.4418 7.30903 10.4531 7.42015 10.4531C7.55556 10.4531 7.66667 10.434 7.75348 10.3958C7.84202 10.3576 7.90712 10.3047 7.94879 10.237C7.99219 10.1693 8.0139 10.0929 8.0139 10.0078Z" fill="#1890FF"/>
<path d="M4.59462 9.83594V7.20833H5.37327V9.83594C5.37327 10.0894 5.31771 10.3073 5.2066 10.4896C5.09549 10.6701 4.94358 10.809 4.75087 10.9062C4.5599 11.0035 4.34462 11.0521 4.10504 11.0521C3.85678 11.0521 3.63716 11.0104 3.44619 10.9271C3.25522 10.8438 3.10504 10.7161 2.99567 10.5443C2.88629 10.3707 2.8316 10.151 2.8316 9.88542H3.61546C3.61546 10.0243 3.63456 10.1345 3.67275 10.2161C3.71268 10.2977 3.7691 10.3559 3.84202 10.3906C3.91494 10.4253 4.00261 10.4427 4.10504 10.4427C4.204 10.4427 4.28994 10.4193 4.36285 10.3724C4.43577 10.3255 4.49219 10.2569 4.53212 10.1667C4.57379 10.0764 4.59462 9.96615 4.59462 9.83594Z" fill="#1890FF"/>
<path d="M11.1864 3.50938L7.82394 0.146875C7.73019 0.053125 7.60363 0 7.47081 0H0.833313C0.55675 0 0.333313 0.223437 0.333313 0.5V13.5C0.333313 13.7766 0.55675 14 0.833313 14H10.8333C11.1099 14 11.3333 13.7766 11.3333 13.5V3.86406C11.3333 3.73125 11.2802 3.60313 11.1864 3.50938ZM7.23956 1.15313L10.1802 4.09375H7.23956V1.15313ZM10.2083 12.875H1.45831V1.125H6.17706V4.5C6.17706 4.67405 6.2462 4.84097 6.36927 4.96404C6.49234 5.08711 6.65926 5.15625 6.83331 5.15625H10.2083V12.875Z" fill="#1890FF"/>
</svg>
