<svg width="12" height="14" viewBox="0 0 12 14" fill="none" xmlns="http://www.w3.org/2000/svg">
<path d="M6.28821 4.5V1.125H1.56946V12.875H10.3195V5.15625H6.94446C6.77041 5.15625 6.60349 5.08711 6.48042 4.96404C6.35735 4.84097 6.28821 4.67405 6.28821 4.5ZM5.94446 11.125C5.6679 11.125 5.44446 10.9016 5.44446 10.625C5.44446 10.3484 5.6679 10.125 5.94446 10.125C6.22102 10.125 6.44446 10.3484 6.44446 10.625C6.44446 10.9016 6.22102 11.125 5.94446 11.125ZM7.66321 7.55625C7.67415 8.25781 7.19915 8.87656 6.50227 9.10156C6.41321 9.12969 6.35071 9.21562 6.35071 9.30937V9.5C6.35071 9.58594 6.2804 9.65625 6.19446 9.65625H5.69446C5.60852 9.65625 5.53821 9.58594 5.53821 9.5V9C5.54133 8.69063 5.77883 8.41719 6.0804 8.37344C6.52258 8.31563 6.85071 7.97344 6.85071 7.57812C6.85071 7.13906 6.44758 6.77344 5.94446 6.77344C5.44133 6.77344 5.03821 7.13906 5.03821 7.57969C5.03821 7.66094 4.96946 7.72656 4.88508 7.72656H4.37883C4.29446 7.72656 4.22571 7.6625 4.22571 7.57812C4.22571 6.68125 5.00852 5.95781 5.9679 5.96875C6.89446 5.98125 7.65071 6.68906 7.66321 7.55625Z" fill="#F0F0F0"/>
<path d="M11.2976 3.51094L7.93508 0.146875C7.84133 0.053125 7.71321 0 7.5804 0H0.944458C0.667896 0 0.444458 0.223438 0.444458 0.5V13.5C0.444458 13.7766 0.667896 14 0.944458 14H10.9445C11.221 14 11.4445 13.7766 11.4445 13.5V3.86406C11.4445 3.73125 11.3913 3.60469 11.2976 3.51094ZM7.35071 1.15313L10.2913 4.09375H7.35071V1.15313ZM10.3195 12.875H1.56946V1.125H6.28821V4.5C6.28821 4.67405 6.35735 4.84097 6.48042 4.96404C6.60349 5.08711 6.77041 5.15625 6.94446 5.15625H10.3195V12.875Z" fill="#8C8C8C"/>
<path d="M5.44446 10.625C5.44446 10.7576 5.49714 10.8848 5.5909 10.9786C5.68467 11.0723 5.81185 11.125 5.94446 11.125C6.07707 11.125 6.20424 11.0723 6.29801 10.9786C6.39178 10.8848 6.44446 10.7576 6.44446 10.625C6.44446 10.4924 6.39178 10.3652 6.29801 10.2714C6.20424 10.1777 6.07707 10.125 5.94446 10.125C5.81185 10.125 5.68467 10.1777 5.5909 10.2714C5.49714 10.3652 5.44446 10.4924 5.44446 10.625ZM4.22571 7.57812C4.22571 7.66249 4.29446 7.72655 4.37883 7.72655H4.88508C4.96946 7.72655 5.03821 7.66093 5.03821 7.57968C5.03821 7.13905 5.44133 6.77343 5.94446 6.77343C6.44758 6.77343 6.85071 7.13905 6.85071 7.57812C6.85071 7.97343 6.52258 8.31562 6.0804 8.37343C5.77883 8.41718 5.54133 8.69062 5.53821 9V9.5C5.53821 9.58593 5.60852 9.65625 5.69446 9.65625H6.19446C6.2804 9.65625 6.35071 9.58593 6.35071 9.5V9.30937C6.35071 9.21562 6.41321 9.12968 6.50227 9.10156C7.19915 8.87656 7.67415 8.2578 7.66321 7.55624C7.65071 6.68905 6.89446 5.98124 5.9679 5.96874C5.00852 5.9578 4.22571 6.68124 4.22571 7.57812Z" fill="#8C8C8C"/>
</svg>
