<svg width="106.000000" height="113.000000" viewBox="0 0 106 113" fill="none" xmlns="http://www.w3.org/2000/svg" xmlns:xlink="http://www.w3.org/1999/xlink">
	<rect id="画板 934" width="106.000000" height="113.000000" fill="#FFFFFF" fill-opacity="0.035"/>
	<g clip-path="url(#clip111_45)">
		<rect id="矩形 2176" x="22.500000" y="10.500000" rx="3.000000" width="6.000000" height="11.000000" fill="#0F0D0D"/>
		<rect id="矩形 2176" x="22.500000" y="10.500000" rx="3.000000" width="6.000000" height="11.000000" fill="#736C6C"/>
		<rect id="矩形 2176" x="22.500000" y="10.500000" rx="3.000000" width="6.000000" height="11.000000" stroke="#000000" stroke-linejoin="bevel"/>
		<rect id="矩形 2176" x="49.500000" y="10.500000" rx="3.000000" width="6.000000" height="11.000000" fill="#0F0D0D"/>
		<rect id="矩形 2176" x="49.500000" y="10.500000" rx="3.000000" width="6.000000" height="11.000000" fill="#736C6C"/>
		<rect id="矩形 2176" x="49.500000" y="10.500000" rx="3.000000" width="6.000000" height="11.000000" stroke="#000000" stroke-linejoin="bevel"/>
		<path id="矢量 943" d="M24.0938 15.8218C24.0938 15.8218 14 11.3477 14 23.2773C14 35.207 26.1123 70 26.1123 70L41 70" stroke="#000000" stroke-width="5.000000"/>
		<path id="矢量 943" d="M53.9062 15.8218C53.9062 15.8218 64 11.3477 64 23.2773C64 35.207 51.8877 70 51.8877 70L37 70" stroke="#000000" stroke-width="5.000000"/>
		<path id="矢量 945" d="M40 83.0723C40 94.0781 48.9219 103 59.9277 103L70 103C81.0459 103 90 94.0459 90 83L90 48" stroke="#000000" stroke-width="5.000000"/>
		<ellipse id="椭圆 54" cx="90.000000" cy="41.500000" rx="11.000000" ry="8.500000" fill="#5092FF"/>
		<path id="矢量 946" d="M27 72C31.9609 80.7266 34.5361 81.2817 39.4443 80.9219C44.7744 81.2124 47.4326 79.7798 51 72" stroke="#000000" stroke-width="5.000000"/>
	</g>
	<defs>
		<clipPath id="clip111_45">
			<rect id="画板 934" width="106.000000" height="113.000000" fill="white"/>
		</clipPath>
	</defs>
</svg>
