<svg width="16" height="16" viewBox="0 0 16 16" fill="none" xmlns="http://www.w3.org/2000/svg">
<rect width="16" height="16" rx="2" fill="#FFF7E6"/>
<path fill-rule="evenodd" clip-rule="evenodd" d="M11.3768 5.18555H12.865L10.9731 3H5.02714L3.13525 5.18555H4.62338L5.49263 4.18138H10.5076L11.3768 5.18555Z" fill="#F2793D"/>
<path fill-rule="evenodd" clip-rule="evenodd" d="M3.67567 4.81914H12.3243C12.6229 4.81914 12.8649 5.06332 12.8649 5.36453V12.4546C12.8649 12.7558 12.6229 13 12.3243 13H3.67567C3.37714 13 3.13513 12.7558 3.13513 12.4546V5.36453C3.13513 5.06332 3.37714 4.81914 3.67567 4.81914ZM6.37831 6.59062C6.07978 6.59062 5.83777 6.83263 5.83777 7.13116C5.83777 7.4297 6.07978 7.6717 6.37831 7.6717H9.62155C9.92008 7.6717 10.1621 7.4297 10.1621 7.13116C10.1621 6.83263 9.92008 6.59062 9.62155 6.59062H6.37831Z" fill="#F2793D"/>
</svg>
