<svg width="16" height="16" viewBox="0 0 16 16" fill="none" xmlns="http://www.w3.org/2000/svg">
<rect width="16" height="16" rx="2" fill="#FFF1F0"/>
<path fill-rule="evenodd" clip-rule="evenodd" d="M13 8C13 10.7614 10.7614 13 8 13C5.23857 13 3 10.7614 3 8C3 5.23857 5.23857 3 8 3C10.7614 3 13 5.23857 13 8ZM9.76792 6.23238C9.96318 6.42765 9.96318 6.74423 9.76792 6.93949L8.70726 8.00015L9.76792 9.06081C9.96318 9.25607 9.96318 9.57265 9.76792 9.76792C9.57265 9.96318 9.25607 9.96318 9.06081 9.76792L8.00015 8.70726L6.93949 9.76792C6.74423 9.96318 6.42765 9.96318 6.23238 9.76792C6.03712 9.57265 6.03712 9.25607 6.23238 9.06081L7.29304 8.00015L6.23238 6.93949C6.03712 6.74423 6.03712 6.42765 6.23238 6.23238C6.42765 6.03712 6.74423 6.03712 6.93949 6.23238L8.00015 7.29304L9.06081 6.23238C9.25607 6.03712 9.57265 6.03712 9.76792 6.23238Z" fill="#FF5658"/>
</svg>
