<svg width="17" height="16" viewBox="0 0 17 16" fill="none" xmlns="http://www.w3.org/2000/svg">
<path d="M9.07619 8.58094C9.15848 8.40265 9.36973 8.32482 9.54802 8.40711C9.72632 8.4894 9.80414 8.70064 9.72186 8.87894L8.14612 12.2931C8.06383 12.4714 7.85258 12.5492 7.67429 12.4669C7.49599 12.3846 7.41817 12.1734 7.50046 11.9951L9.07619 8.58094Z" fill="#722ED1"/>
<path d="M10.1981 9.13508C10.0593 9.27393 10.0593 9.49906 10.1981 9.63791L10.9972 10.437L10.1981 11.2361C10.0593 11.3749 10.0593 11.6001 10.1981 11.7389C10.337 11.8778 10.5621 11.8778 10.7009 11.7389L11.7514 10.6884C11.8903 10.5496 11.8903 10.3244 11.7514 10.1856L10.7009 9.13508C10.5621 8.99623 10.337 8.99623 10.1981 9.13508Z" fill="#722ED1"/>
<path d="M7.02416 9.13509C7.16301 9.27395 7.16302 9.49907 7.02416 9.63792L6.22508 10.437L7.02416 11.2361C7.16302 11.375 7.16301 11.6001 7.02416 11.7389C6.88531 11.8778 6.66018 11.8778 6.52133 11.7389L5.47084 10.6884C5.33199 10.5496 5.33199 10.3245 5.47084 10.1856L6.52133 9.1351C6.66018 8.99624 6.88531 8.99624 7.02416 9.13509Z" fill="#722ED1"/>
<path fill-rule="evenodd" clip-rule="evenodd" d="M8.95483 2.125V5.5C8.95483 5.67405 9.02397 5.84097 9.14705 5.96404C9.27012 6.08711 9.43704 6.15625 9.61108 6.15625H12.9861V13.875H4.23608V2.125H8.95483ZM9.07617 8.58094C9.15846 8.40264 9.3697 8.32482 9.54799 8.40711C9.72629 8.48939 9.80412 8.70064 9.72183 8.87893L8.14609 12.2931C8.0638 12.4714 7.85256 12.5492 7.67426 12.4669C7.49597 12.3846 7.41814 12.1734 7.50043 11.9951L9.07617 8.58094ZM10.1981 9.13508C10.0592 9.27393 10.0592 9.49905 10.1981 9.63791L10.9972 10.437L10.1981 11.2361C10.0592 11.3749 10.0592 11.6001 10.1981 11.7389C10.3369 11.8778 10.5621 11.8778 10.7009 11.7389L11.7514 10.6884C11.8903 10.5496 11.8903 10.3244 11.7514 10.1856L10.7009 9.13508C10.5621 8.99623 10.3369 8.99622 10.1981 9.13508ZM7.02414 9.63792C7.16299 9.49907 7.16299 9.27394 7.02413 9.13509C6.88528 8.99624 6.66015 8.99624 6.5213 9.13509L5.47081 10.1856C5.33196 10.3245 5.33196 10.5496 5.47081 10.6884L6.5213 11.7389C6.66015 11.8778 6.88528 11.8778 7.02413 11.7389C7.16299 11.6001 7.16299 11.375 7.02414 11.2361L6.22506 10.437L7.02414 9.63792Z" fill="#EFDBFF"/>
<path d="M13.9642 4.50938L10.6017 1.14688C10.508 1.05313 10.3814 1 10.2486 1H3.61108C3.33452 1 3.11108 1.22344 3.11108 1.5V14.5C3.11108 14.7766 3.33452 15 3.61108 15H13.6111C13.8876 15 14.1111 14.7766 14.1111 14.5V4.86406C14.1111 4.73125 14.058 4.60313 13.9642 4.50938ZM10.0173 2.15313L12.958 5.09375H10.0173V2.15313ZM12.9861 13.875H4.23608V2.125H8.95483V5.5C8.95483 5.67405 9.02397 5.84097 9.14705 5.96404C9.27012 6.08711 9.43704 6.15625 9.61108 6.15625H12.9861V13.875Z" fill="#722ED1"/>
</svg>
