<svg width="17" height="16" viewBox="0 0 17 16" fill="none" xmlns="http://www.w3.org/2000/svg">
<path d="M8.73267 5.5V2.125H4.01392V13.875H12.7639V6.15625H9.38892C9.21487 6.15625 9.04795 6.08711 8.92488 5.96404C8.80181 5.84097 8.73267 5.67405 8.73267 5.5ZM6.63892 6.28125C6.98423 6.28125 7.26392 6.56094 7.26392 6.90625C7.26392 7.25156 6.98423 7.53125 6.63892 7.53125C6.2936 7.53125 6.01392 7.25156 6.01392 6.90625C6.01392 6.56094 6.2936 6.28125 6.63892 6.28125ZM11.2639 10.875H5.51548C5.41079 10.875 5.35298 10.7547 5.41704 10.6734L6.97642 8.68594C6.98811 8.671 7.00305 8.65891 7.0201 8.65061C7.03716 8.6423 7.05588 8.63798 7.07485 8.63798C7.09383 8.63798 7.11255 8.6423 7.1296 8.65061C7.14666 8.65891 7.1616 8.671 7.17329 8.68594L7.81548 9.50469L9.0311 7.95469C9.04295 7.93972 9.05803 7.92764 9.07521 7.91933C9.0924 7.91102 9.11124 7.9067 9.13032 7.9067C9.14941 7.9067 9.16825 7.91102 9.18543 7.91933C9.20261 7.92764 9.21769 7.93972 9.22954 7.95469L11.3624 10.6734C11.4264 10.7547 11.3686 10.875 11.2639 10.875Z" fill="#E6F7FF"/>
<path d="M13.742 4.50938L10.3795 1.14688C10.2858 1.05313 10.1592 1 10.0264 1H3.38892C3.11235 1 2.88892 1.22344 2.88892 1.5V14.5C2.88892 14.7766 3.11235 15 3.38892 15H13.3889C13.6655 15 13.8889 14.7766 13.8889 14.5V4.86406C13.8889 4.73125 13.8358 4.60313 13.742 4.50938ZM9.79517 2.15313L12.7358 5.09375H9.79517V2.15313ZM12.7639 13.875H4.01392V2.125H8.73267V5.5C8.73267 5.67405 8.80181 5.84097 8.92488 5.96404C9.04795 6.08711 9.21487 6.15625 9.38892 6.15625H12.7639V13.875Z" fill="#1890FF"/>
<path d="M9.03123 7.95469L7.8156 9.5047L7.17341 8.68594C7.16172 8.671 7.14678 8.65892 7.12972 8.65061C7.11267 8.6423 7.09395 8.63798 7.07498 8.63798C7.056 8.63798 7.03728 8.6423 7.02023 8.65061C7.00317 8.65892 6.98823 8.671 6.97654 8.68594L5.41716 10.6735C5.40273 10.6919 5.39378 10.714 5.39133 10.7373C5.38887 10.7605 5.39302 10.784 5.40329 10.805C5.41356 10.8261 5.42953 10.8438 5.44939 10.8562C5.46926 10.8685 5.4922 10.8751 5.5156 10.875H11.264C11.3687 10.875 11.4265 10.7547 11.3625 10.6735L9.22967 7.95469C9.21782 7.93973 9.20274 7.92764 9.18556 7.91933C9.16837 7.91102 9.14953 7.9067 9.13045 7.9067C9.11136 7.9067 9.09252 7.91102 9.07534 7.91933C9.05816 7.92764 9.04308 7.93973 9.03123 7.95469ZM6.01404 6.90625C6.01404 7.07201 6.07988 7.23098 6.19709 7.34819C6.3143 7.4654 6.47328 7.53125 6.63904 7.53125C6.8048 7.53125 6.96377 7.4654 7.08098 7.34819C7.19819 7.23098 7.26404 7.07201 7.26404 6.90625C7.26404 6.74049 7.19819 6.58152 7.08098 6.46431C6.96377 6.3471 6.8048 6.28125 6.63904 6.28125C6.47328 6.28125 6.3143 6.3471 6.19709 6.46431C6.07988 6.58152 6.01404 6.74049 6.01404 6.90625Z" fill="#1890FF"/>
</svg>
