<svg width="17" height="16" viewBox="0 0 17 16" fill="none" xmlns="http://www.w3.org/2000/svg">
<path d="M13.4087 4.50938L10.0462 1.14688C9.95242 1.05313 9.82585 1 9.69304 1H3.05554C2.77898 1 2.55554 1.22344 2.55554 1.5V14.5C2.55554 14.7766 2.77898 15 3.05554 15H13.0555C13.3321 15 13.5555 14.7766 13.5555 14.5V4.86406C13.5555 4.73125 13.5024 4.60313 13.4087 4.50938ZM9.46179 2.15313L12.4024 5.09375H9.46179V2.15313ZM12.4305 13.875H3.68054V2.125H8.39929V5.5C8.39929 5.67405 8.46843 5.84097 8.5915 5.96404C8.71457 6.08711 8.88149 6.15625 9.05554 6.15625H12.4305V13.875Z" fill="#FAAD14"/>
<path d="M8.92691 10.6511H9.81461C9.7968 10.9421 9.71664 11.2004 9.57413 11.426C9.4336 11.6516 9.23667 11.8278 8.98332 11.9545C8.73195 12.0812 8.42913 12.1445 8.07484 12.1445C7.79774 12.1445 7.54934 12.097 7.32964 12.002C7.10994 11.905 6.92191 11.7664 6.76555 11.5863C6.61117 11.4062 6.4934 11.1885 6.41225 10.9332C6.3311 10.6779 6.29053 10.3918 6.29053 10.0752V9.7753C6.29053 9.45862 6.33209 9.17262 6.41522 8.91729C6.50033 8.65999 6.62106 8.44128 6.77743 8.26116C6.93577 8.08105 7.12479 7.9425 7.34449 7.84552C7.56419 7.74853 7.80961 7.70004 8.08077 7.70004C8.441 7.70004 8.74482 7.76536 8.99223 7.89599C9.24161 8.02662 9.43459 8.20674 9.57116 8.43633C9.70971 8.66593 9.79284 8.92719 9.82055 9.22012H8.92988C8.91998 9.04594 8.88535 8.89849 8.82597 8.77775C8.76659 8.65504 8.67653 8.563 8.5558 8.50165C8.43704 8.43831 8.2787 8.40664 8.08077 8.40664C7.93233 8.40664 7.80269 8.43435 7.69185 8.48977C7.58101 8.54519 7.48798 8.62931 7.41277 8.74213C7.33756 8.85495 7.28115 8.99745 7.24354 9.16965C7.20792 9.33987 7.1901 9.53977 7.1901 9.76937V10.0752C7.1901 10.2988 7.20693 10.4958 7.24058 10.666C7.27422 10.8342 7.32568 10.9767 7.39496 11.0935C7.46621 11.2083 7.55726 11.2954 7.6681 11.3548C7.78092 11.4122 7.9165 11.4409 8.07484 11.4409C8.26089 11.4409 8.41428 11.4112 8.53502 11.3518C8.65575 11.2924 8.74779 11.2043 8.81112 11.0876C8.87644 10.9708 8.91504 10.8253 8.92691 10.6511Z" fill="#FAAD14"/>
<path fill-rule="evenodd" clip-rule="evenodd" d="M8.39929 2.125V5.5C8.39929 5.67405 8.46843 5.84097 8.5915 5.96404C8.71457 6.08711 8.88149 6.15625 9.05554 6.15625H12.4305V13.875H3.68054V2.125H8.39929ZM9.8146 10.6511H8.9269C8.91502 10.8253 8.87643 10.9708 8.81111 11.0876C8.74777 11.2043 8.65574 11.2924 8.535 11.3518C8.41427 11.4112 8.26087 11.4409 8.07482 11.4409C7.91648 11.4409 7.7809 11.4122 7.66808 11.3548C7.55725 11.2954 7.4662 11.2083 7.39494 11.0935C7.32567 10.9767 7.27421 10.8342 7.24056 10.666C7.20691 10.4958 7.19009 10.2988 7.19009 10.0752V9.76937C7.19009 9.53978 7.2079 9.33987 7.24353 9.16965C7.28114 8.99746 7.33755 8.85495 7.41276 8.74213C7.48797 8.62931 7.581 8.54519 7.69184 8.48977C7.80267 8.43435 7.93232 8.40664 8.08076 8.40664C8.27869 8.40664 8.43703 8.43831 8.55579 8.50165C8.67652 8.56301 8.76658 8.65504 8.82595 8.77776C8.88533 8.89849 8.91997 9.04595 8.92987 9.22012H9.82054C9.79283 8.92719 9.7097 8.66593 9.57115 8.43633C9.43458 8.20674 9.2416 8.02663 8.99221 7.89599C8.74481 7.76536 8.44099 7.70005 8.08076 7.70005C7.8096 7.70005 7.56417 7.74854 7.34447 7.84552C7.12477 7.94251 6.93576 8.08105 6.77741 8.26117C6.62105 8.44128 6.50032 8.65999 6.41521 8.9173C6.33208 9.17262 6.29051 9.45862 6.29051 9.77531V10.0752C6.29051 10.3919 6.33109 10.6779 6.41224 10.9332C6.49339 11.1885 6.61116 11.4062 6.76554 11.5863C6.9219 11.7665 7.10993 11.905 7.32963 12.002C7.54933 12.097 7.79773 12.1445 8.07482 12.1445C8.42911 12.1445 8.73194 12.0812 8.98331 11.9545C9.23665 11.8278 9.43359 11.6517 9.57412 11.426C9.71663 11.2004 9.79679 10.9421 9.8146 10.6511Z" fill="#FFF1B8"/>
</svg>
