<svg width="17" height="16" viewBox="0 0 17 16" fill="none" xmlns="http://www.w3.org/2000/svg">
<path fill-rule="evenodd" clip-rule="evenodd" d="M9.17706 2.125V5.5C9.17706 5.67405 9.2462 5.84097 9.36927 5.96404C9.49234 6.08711 9.65926 6.15625 9.83331 6.15625H13.2083V13.875H4.45831V2.125H9.17706ZM10.9826 10.8255C11.0035 10.8793 11.0139 10.9401 11.0139 11.0078C11.0139 11.0929 10.9922 11.1693 10.9488 11.237C10.9071 11.3047 10.842 11.3576 10.7535 11.3958C10.6666 11.434 10.5555 11.4531 10.4201 11.4531C10.309 11.4531 10.2066 11.4418 10.1128 11.4193C10.0208 11.3967 9.94095 11.3602 9.87324 11.3099C9.80727 11.2595 9.75606 11.1936 9.7196 11.112C9.68314 11.0304 9.66491 10.9306 9.66491 10.8125H8.88106C8.88106 11.026 8.92533 11.2109 9.01387 11.3672C9.10241 11.5234 9.22047 11.6519 9.36804 11.7526C9.51734 11.8533 9.68314 11.9288 9.86543 11.9792C10.0477 12.0278 10.2326 12.0521 10.4201 12.0521C10.6285 12.0521 10.8168 12.0286 10.9852 11.9818C11.1536 11.9349 11.2986 11.8663 11.4201 11.776C11.5416 11.6858 11.6345 11.5755 11.6988 11.4453C11.763 11.3151 11.7951 11.1675 11.7951 11.0026C11.7951 10.8464 11.7682 10.7066 11.7144 10.5833C11.6606 10.4601 11.5807 10.3498 11.4748 10.2526C11.3689 10.1554 11.237 10.0677 11.079 9.98958C10.9227 9.91146 10.7413 9.84115 10.5347 9.77865C10.4114 9.74045 10.3029 9.70139 10.2092 9.66146C10.1154 9.62153 10.0364 9.57899 9.9722 9.53385C9.90797 9.48872 9.85935 9.4401 9.82637 9.38802C9.79512 9.33594 9.77949 9.27778 9.77949 9.21354C9.77949 9.12847 9.80206 9.05208 9.8472 8.98438C9.89234 8.91493 9.96005 8.86024 10.0503 8.82031C10.1406 8.77865 10.2535 8.75781 10.3889 8.75781C10.5295 8.75781 10.6458 8.78212 10.7378 8.83073C10.8316 8.87934 10.901 8.94618 10.9462 9.03125C10.993 9.11458 11.0165 9.21181 11.0165 9.32292H11.7925C11.7925 9.09722 11.7344 8.8967 11.618 8.72135C11.5035 8.54601 11.342 8.40799 11.1337 8.30729C10.9253 8.2066 10.6814 8.15625 10.4019 8.15625C10.197 8.15625 10.0087 8.18142 9.83679 8.23177C9.66665 8.28212 9.51908 8.35417 9.39408 8.44792C9.26908 8.53993 9.17185 8.65104 9.10241 8.78125C9.03297 8.90972 8.99824 9.05295 8.99824 9.21094C8.99824 9.37413 9.03123 9.51736 9.0972 9.64062C9.16491 9.76389 9.25692 9.8724 9.37324 9.96615C9.4913 10.0582 9.62672 10.1389 9.77949 10.2083C9.93401 10.2778 10.0972 10.3403 10.2691 10.3958C10.4236 10.4444 10.5495 10.4913 10.6467 10.5365C10.7439 10.5816 10.8194 10.6276 10.8732 10.6745C10.9271 10.7196 10.9635 10.77 10.9826 10.8255ZM7.5946 8.20833V10.8359C7.5946 10.9661 7.57376 11.0764 7.5321 11.1667C7.49217 11.2569 7.43574 11.3255 7.36283 11.3724C7.28991 11.4193 7.20397 11.4427 7.10501 11.4427C7.00258 11.4427 6.91491 11.4253 6.84199 11.3906C6.76908 11.3559 6.71265 11.2977 6.67272 11.2161C6.63453 11.1345 6.61543 11.0243 6.61543 10.8854H5.83158C5.83158 11.151 5.88626 11.3707 5.99564 11.5443C6.10501 11.7161 6.25519 11.8438 6.44616 11.9271C6.63713 12.0104 6.85675 12.0521 7.10501 12.0521C7.3446 12.0521 7.55988 12.0035 7.75085 11.9062C7.94356 11.809 8.09547 11.6701 8.20658 11.4896C8.31769 11.3073 8.37324 11.0894 8.37324 10.8359V8.20833H7.5946Z" fill="#E6F7FF"/>
<path d="M11.0139 11.0078C11.0139 10.9401 11.0035 10.8793 10.9826 10.8255C10.9635 10.77 10.9271 10.7196 10.8733 10.6745C10.8195 10.6276 10.7439 10.5816 10.6467 10.5365C10.5495 10.4913 10.4236 10.4444 10.2691 10.3958C10.0972 10.3403 9.93403 10.2778 9.77952 10.2083C9.62674 10.1389 9.49133 10.0582 9.37327 9.96615C9.25695 9.8724 9.16494 9.76389 9.09723 9.64062C9.03126 9.51736 8.99827 9.37413 8.99827 9.21094C8.99827 9.05295 9.03299 8.90972 9.10244 8.78125C9.17188 8.65104 9.2691 8.53993 9.3941 8.44792C9.5191 8.35417 9.66667 8.28212 9.83681 8.23177C10.0087 8.18142 10.1971 8.15625 10.4019 8.15625C10.6814 8.15625 10.9254 8.2066 11.1337 8.30729C11.342 8.40799 11.5035 8.54601 11.6181 8.72135C11.7344 8.8967 11.7925 9.09722 11.7925 9.32292H11.0165C11.0165 9.21181 10.9931 9.11458 10.9462 9.03125C10.901 8.94618 10.8316 8.87934 10.7379 8.83073C10.6458 8.78212 10.5295 8.75781 10.3889 8.75781C10.2535 8.75781 10.1406 8.77865 10.0504 8.82031C9.96008 8.86024 9.89237 8.91493 9.84723 8.98438C9.80209 9.05208 9.77952 9.12847 9.77952 9.21354C9.77952 9.27778 9.79515 9.33594 9.8264 9.38802C9.85938 9.4401 9.90799 9.48872 9.97223 9.53385C10.0365 9.57899 10.1155 9.62153 10.2092 9.66146C10.303 9.70139 10.4115 9.74045 10.5347 9.77865C10.7413 9.84115 10.9227 9.91146 11.079 9.98958C11.237 10.0677 11.3689 10.1554 11.4748 10.2526C11.5807 10.3498 11.6606 10.4601 11.7144 10.5833C11.7682 10.7066 11.7951 10.8464 11.7951 11.0026C11.7951 11.1675 11.763 11.3151 11.6988 11.4453C11.6346 11.5755 11.5417 11.6858 11.4201 11.776C11.2986 11.8663 11.1537 11.9349 10.9852 11.9818C10.8168 12.0286 10.6285 12.0521 10.4201 12.0521C10.2326 12.0521 10.0477 12.0278 9.86546 11.9792C9.68317 11.9288 9.51737 11.8533 9.36806 11.7526C9.22049 11.6519 9.10244 11.5234 9.0139 11.3672C8.92535 11.2109 8.88108 11.026 8.88108 10.8125H9.66494C9.66494 10.9306 9.68317 11.0304 9.71962 11.112C9.75608 11.1936 9.8073 11.2595 9.87327 11.3099C9.94098 11.3602 10.0208 11.3967 10.1129 11.4193C10.2066 11.4418 10.309 11.4531 10.4201 11.4531C10.5556 11.4531 10.6667 11.434 10.7535 11.3958C10.842 11.3576 10.9071 11.3047 10.9488 11.237C10.9922 11.1693 11.0139 11.0929 11.0139 11.0078Z" fill="#1890FF"/>
<path d="M7.59462 10.8359V8.20833H8.37327V10.8359C8.37327 11.0894 8.31771 11.3073 8.2066 11.4896C8.09549 11.6701 7.94358 11.809 7.75087 11.9062C7.5599 12.0035 7.34462 12.0521 7.10504 12.0521C6.85678 12.0521 6.63716 12.0104 6.44619 11.9271C6.25522 11.8438 6.10504 11.7161 5.99567 11.5443C5.88629 11.3707 5.8316 11.151 5.8316 10.8854H6.61546C6.61546 11.0243 6.63456 11.1345 6.67275 11.2161C6.71268 11.2977 6.7691 11.3559 6.84202 11.3906C6.91494 11.4253 7.00261 11.4427 7.10504 11.4427C7.204 11.4427 7.28994 11.4193 7.36285 11.3724C7.43577 11.3255 7.49219 11.2569 7.53212 11.1667C7.57379 11.0764 7.59462 10.9661 7.59462 10.8359Z" fill="#1890FF"/>
<path d="M14.1864 4.50938L10.8239 1.14688C10.7302 1.05313 10.6036 1 10.4708 1H3.83331C3.55675 1 3.33331 1.22344 3.33331 1.5V14.5C3.33331 14.7766 3.55675 15 3.83331 15H13.8333C14.1099 15 14.3333 14.7766 14.3333 14.5V4.86406C14.3333 4.73125 14.2802 4.60313 14.1864 4.50938ZM10.2396 2.15313L13.1802 5.09375H10.2396V2.15313ZM13.2083 13.875H4.45831V2.125H9.17706V5.5C9.17706 5.67405 9.2462 5.84097 9.36927 5.96404C9.49234 6.08711 9.65926 6.15625 9.83331 6.15625H13.2083V13.875Z" fill="#1890FF"/>
</svg>
