<svg width="17" height="16" viewBox="0 0 17 16" fill="none" xmlns="http://www.w3.org/2000/svg">
<path d="M9.28821 5.5V2.125H4.56946V13.875H13.3195V6.15625H9.94446C9.77041 6.15625 9.60349 6.08711 9.48042 5.96404C9.35735 5.84097 9.28821 5.67405 9.28821 5.5ZM8.94446 12.125C8.6679 12.125 8.44446 11.9016 8.44446 11.625C8.44446 11.3484 8.6679 11.125 8.94446 11.125C9.22102 11.125 9.44446 11.3484 9.44446 11.625C9.44446 11.9016 9.22102 12.125 8.94446 12.125ZM10.6632 8.55625C10.6741 9.25781 10.1991 9.87656 9.50227 10.1016C9.41321 10.1297 9.35071 10.2156 9.35071 10.3094V10.5C9.35071 10.5859 9.2804 10.6562 9.19446 10.6562H8.69446C8.60852 10.6562 8.53821 10.5859 8.53821 10.5V10C8.54133 9.69063 8.77883 9.41719 9.0804 9.37344C9.52258 9.31563 9.85071 8.97344 9.85071 8.57812C9.85071 8.13906 9.44758 7.77344 8.94446 7.77344C8.44133 7.77344 8.03821 8.13906 8.03821 8.57969C8.03821 8.66094 7.96946 8.72656 7.88508 8.72656H7.37883C7.29446 8.72656 7.22571 8.6625 7.22571 8.57812C7.22571 7.68125 8.00852 6.95781 8.9679 6.96875C9.89446 6.98125 10.6507 7.68906 10.6632 8.55625Z" fill="#F0F0F0"/>
<path d="M14.2976 4.51094L10.9351 1.14688C10.8413 1.05313 10.7132 1 10.5804 1H3.94446C3.6679 1 3.44446 1.22344 3.44446 1.5V14.5C3.44446 14.7766 3.6679 15 3.94446 15H13.9445C14.221 15 14.4445 14.7766 14.4445 14.5V4.86406C14.4445 4.73125 14.3913 4.60469 14.2976 4.51094ZM10.3507 2.15313L13.2913 5.09375H10.3507V2.15313ZM13.3195 13.875H4.56946V2.125H9.28821V5.5C9.28821 5.67405 9.35735 5.84097 9.48042 5.96404C9.60349 6.08711 9.77041 6.15625 9.94446 6.15625H13.3195V13.875Z" fill="#8C8C8C"/>
<path d="M8.44446 11.625C8.44446 11.7576 8.49714 11.8848 8.5909 11.9786C8.68467 12.0723 8.81185 12.125 8.94446 12.125C9.07707 12.125 9.20424 12.0723 9.29801 11.9786C9.39178 11.8848 9.44446 11.7576 9.44446 11.625C9.44446 11.4924 9.39178 11.3652 9.29801 11.2714C9.20424 11.1777 9.07707 11.125 8.94446 11.125C8.81185 11.125 8.68467 11.1777 8.5909 11.2714C8.49714 11.3652 8.44446 11.4924 8.44446 11.625ZM7.22571 8.57812C7.22571 8.66249 7.29446 8.72655 7.37883 8.72655H7.88508C7.96946 8.72655 8.03821 8.66093 8.03821 8.57968C8.03821 8.13905 8.44133 7.77343 8.94446 7.77343C9.44758 7.77343 9.85071 8.13905 9.85071 8.57812C9.85071 8.97343 9.52258 9.31562 9.0804 9.37343C8.77883 9.41718 8.54133 9.69062 8.53821 10V10.5C8.53821 10.5859 8.60852 10.6562 8.69446 10.6562H9.19446C9.2804 10.6562 9.35071 10.5859 9.35071 10.5V10.3094C9.35071 10.2156 9.41321 10.1297 9.50227 10.1016C10.1991 9.87656 10.6741 9.2578 10.6632 8.55624C10.6507 7.68905 9.89446 6.98124 8.9679 6.96874C8.00852 6.9578 7.22571 7.68124 7.22571 8.57812Z" fill="#8C8C8C"/>
</svg>
