<svg width="16" height="16" viewBox="0 0 16 16" fill="none" xmlns="http://www.w3.org/2000/svg">
<rect width="16" height="16" rx="2" fill="#F6FFED"/>
<path fill-rule="evenodd" clip-rule="evenodd" d="M4.58635 6.17236C4.11501 6.17236 3.73291 6.55446 3.73291 7.0258V12.1464C3.73291 12.6178 4.11501 12.9999 4.58635 12.9999H11.4139C11.8852 12.9999 12.2673 12.6178 12.2673 12.1464V7.0258C12.2673 6.55446 11.8852 6.17236 11.4139 6.17236H9.70699V7.87924C9.70699 8.82193 8.94279 9.58612 8.00011 9.58612C7.05743 9.58612 6.29323 8.82193 6.29323 7.87924V6.17236H4.58635Z" fill="#52C41A"/>
<path d="M7.14673 4.46575C7.14673 3.9944 7.52883 3.6123 8.00017 3.6123C8.47151 3.6123 8.85361 3.9944 8.85361 4.46574V7.8795C8.85361 8.35085 8.47151 8.73294 8.00017 8.73294C7.52883 8.73294 7.14673 8.35085 7.14673 7.87951V4.46575Z" fill="#52C41A"/>
<path d="M8.00002 3L10.2173 5.30404H5.78271L8.00002 3Z" fill="#52C41A"/>
</svg>
