<svg width="16" height="16" viewBox="0 0 16 16" fill="none" xmlns="http://www.w3.org/2000/svg">
<rect width="16" height="16" rx="2" fill="#FFF2E8"/>
<path d="M13.2107 4.02637C13.2107 3.75022 12.9869 3.52637 12.7107 3.52637H3.28931C3.01316 3.52637 2.78931 3.75022 2.78931 4.02637V5.34216C2.78931 5.6183 3.01316 5.84216 3.28931 5.84216H12.7107C12.9869 5.84216 13.2107 5.6183 13.2107 5.34216V4.02637Z" fill="#FA541C"/>
<path d="M13.2107 7.34228C13.2107 7.06614 12.9869 6.84229 12.7107 6.84229H3.28931C3.01316 6.84229 2.78931 7.06614 2.78931 7.34229V8.65808C2.78931 8.93422 3.01316 9.15808 3.28931 9.15808H12.7107C12.9869 9.15808 13.2107 8.93422 13.2107 8.65808V7.34228Z" fill="#FA541C"/>
<path d="M13.2107 10.6582C13.2107 10.3821 12.9869 10.1582 12.7107 10.1582H3.28931C3.01316 10.1582 2.78931 10.3821 2.78931 10.6582V11.974C2.78931 12.2501 3.01316 12.474 3.28931 12.474H12.7107C12.9869 12.474 13.2107 12.2501 13.2107 11.974V10.6582Z" fill="#FA541C"/>
</svg>
