<svg width="16" height="16" viewBox="0 0 16 16" fill="none" xmlns="http://www.w3.org/2000/svg">
<rect width="16" height="16" rx="2" fill="#FFF7E6"/>
<path d="M3 7V5C3 3.89543 5.23858 3 8 3C10.7614 3 13 3.89543 13 5V7C13 8.10457 10.7614 9 8 9C5.23858 9 3 8.10457 3 7Z" fill="#F2793D"/>
<path d="M8 10C10.7614 10 13 9.10457 13 8V9C13 10.1046 10.7614 11 8 11C5.23858 11 3 10.1046 3 9V8C3 9.10457 5.23858 10 8 10Z" fill="#F2793D"/>
<path d="M8 12C10.7614 12 13 11.1046 13 10V11C13 12.1046 10.7614 13 8 13C5.23858 13 3 12.1046 3 11V10C3 11.1046 5.23858 12 8 12Z" fill="#F2793D"/>
</svg>
