<svg width="16" height="16" viewBox="0 0 16 16" fill="none" xmlns="http://www.w3.org/2000/svg">
<rect width="16" height="16" rx="2" fill="#E6F7FF"/>
<g clip-path="url(#clip0_1283_2977)">
<path d="M13.4375 9.87491C13.3614 9.87491 13.2888 9.89048 13.2224 9.91785V9.91766L13.22 9.9186L13.2176 9.91954L8 12.0786L2.78262 9.91973C2.78185 9.91933 2.78103 9.91902 2.78019 9.91879L2.77775 9.91785L2.77756 9.91804C2.64085 9.86636 2.48939 9.86993 2.35526 9.92798C2.22113 9.98603 2.11486 10.094 2.05896 10.229C2.00305 10.3641 2.0019 10.5156 2.05574 10.6514C2.10959 10.7873 2.21421 10.8969 2.34744 10.957V10.9572L7.78006 13.2051C7.78084 13.2055 7.78166 13.2058 7.7825 13.206L7.78494 13.207L7.78512 13.2068C7.85321 13.2353 7.92627 13.2499 8.00008 13.25C8.07388 13.25 8.14695 13.2354 8.21506 13.207L8.21525 13.2072L8.21769 13.2062C8.21847 13.2058 8.21928 13.2055 8.22013 13.2053L13.6526 10.9574V10.9572C13.7728 10.9074 13.8721 10.8175 13.9335 10.7027C13.9949 10.5879 14.0145 10.4554 13.9892 10.3278C13.9638 10.2001 13.895 10.0852 13.7944 10.0026C13.6938 9.92006 13.5676 9.87492 13.4375 9.87491ZM2.34762 6.08198V6.08216L7.78025 8.3301L7.78269 8.33104L7.78512 8.33198L7.78531 8.33179C7.85335 8.36033 7.92639 8.37504 8.00017 8.37507C8.07395 8.3751 8.147 8.36045 8.21506 8.33198L8.21525 8.33216L8.21769 8.33123C8.21847 8.33083 8.21928 8.33052 8.22013 8.33029L13.6526 6.08235V6.08216C13.7553 6.03955 13.8432 5.96744 13.905 5.87494C13.9669 5.78244 13.9999 5.67368 14 5.56241C14 5.45116 13.9669 5.34242 13.9051 5.24994C13.8432 5.15745 13.7554 5.08539 13.6526 5.04285V5.04266L8.22013 2.79473C8.21935 2.79433 8.21853 2.79402 8.21769 2.79379L8.21525 2.79285L8.21506 2.79304C8.14695 2.76466 8.0739 2.75003 8.00011 2.75C7.92633 2.74997 7.85326 2.76453 7.78512 2.79285L7.78494 2.79266L7.7825 2.7936C7.78172 2.79399 7.7809 2.79431 7.78006 2.79454L2.34744 5.04266V5.04285C2.24464 5.08539 2.15676 5.15745 2.09491 5.24994C2.03307 5.34242 2.00004 5.45116 2 5.56241C2.00006 5.67369 2.03311 5.78245 2.09499 5.87493C2.15687 5.96742 2.24479 6.03947 2.34762 6.08198ZM13.4375 7.43741C13.3614 7.43741 13.2888 7.45298 13.2224 7.48035V7.48016L13.22 7.48129C13.2192 7.48168 13.2184 7.482 13.2176 7.48223L8 9.6411L2.78262 7.48223C2.78185 7.48183 2.78103 7.48152 2.78019 7.48129L2.77775 7.48016L2.77756 7.48035C2.64064 7.42776 2.48858 7.43073 2.35382 7.48863C2.21905 7.54653 2.11223 7.65478 2.05613 7.79031C2.00003 7.92584 1.99909 8.07792 2.05351 8.21413C2.10792 8.35034 2.2134 8.45991 2.34744 8.51948V8.51966L7.78006 10.7676L7.7825 10.7685L7.78494 10.7695L7.78512 10.7693C7.85321 10.7978 7.92627 10.8124 8.00008 10.8125C8.07388 10.8125 8.14695 10.7979 8.21506 10.7695L8.21525 10.7697L8.21769 10.7687C8.21847 10.7683 8.21928 10.768 8.22013 10.7678L13.6526 8.51985V8.51966C13.7728 8.4699 13.8721 8.37997 13.9335 8.2652C13.9949 8.15043 14.0145 8.01793 13.9892 7.89028C13.9638 7.76263 13.895 7.64772 13.7944 7.56514C13.6938 7.48256 13.5676 7.43742 13.4375 7.43741Z" fill="#3874F6"/>
</g>
<defs>
<clipPath id="clip0_1283_2977">
<rect width="12" height="12" fill="white" transform="translate(2 2)"/>
</clipPath>
</defs>
</svg>
