<svg width="12" height="14" viewBox="0 0 12 14" fill="none" xmlns="http://www.w3.org/2000/svg">
<path d="M11.4087 3.50938L8.04617 0.146875C7.95242 0.053125 7.82585 0 7.69304 0H1.05554C0.778979 0 0.555542 0.223437 0.555542 0.5V13.5C0.555542 13.7766 0.778979 14 1.05554 14H11.0555C11.3321 14 11.5555 13.7766 11.5555 13.5V3.86406C11.5555 3.73125 11.5024 3.60313 11.4087 3.50938ZM7.46179 1.15313L10.4024 4.09375H7.46179V1.15313ZM10.4305 12.875H1.68054V1.125H6.39929V4.5C6.39929 4.67405 6.46843 4.84097 6.5915 4.96404C6.71457 5.08711 6.88149 5.15625 7.05554 5.15625H10.4305V12.875Z" fill="#FAAD14"/>
<path d="M6.92691 9.65113H7.81461C7.7968 9.94208 7.71664 10.2004 7.57413 10.426C7.4336 10.6516 7.23667 10.8278 6.98332 10.9545C6.73195 11.0812 6.42913 11.1445 6.07484 11.1445C5.79774 11.1445 5.54934 11.097 5.32964 11.002C5.10994 10.905 4.92191 10.7664 4.76555 10.5863C4.61117 10.4062 4.4934 10.1885 4.41225 9.93318C4.3311 9.67785 4.29053 9.39185 4.29053 9.07516V8.7753C4.29053 8.45862 4.33209 8.17262 4.41522 7.91729C4.50033 7.65999 4.62106 7.44128 4.77743 7.26116C4.93577 7.08105 5.12479 6.9425 5.34449 6.84552C5.56419 6.74853 5.80961 6.70004 6.08077 6.70004C6.441 6.70004 6.74482 6.76536 6.99223 6.89599C7.24161 7.02662 7.43459 7.20674 7.57116 7.43633C7.70971 7.66593 7.79284 7.92719 7.82055 8.22012H6.92988C6.91998 8.04594 6.88535 7.89849 6.82597 7.77775C6.76659 7.65504 6.67653 7.563 6.5558 7.50165C6.43704 7.43831 6.2787 7.40664 6.08077 7.40664C5.93233 7.40664 5.80269 7.43435 5.69185 7.48977C5.58101 7.54519 5.48798 7.62931 5.41277 7.74213C5.33756 7.85495 5.28115 7.99745 5.24354 8.16965C5.20792 8.33987 5.1901 8.53977 5.1901 8.76937V9.07516C5.1901 9.29882 5.20693 9.49576 5.24058 9.66597C5.27422 9.83421 5.32568 9.97672 5.39496 10.0935C5.46621 10.2083 5.55726 10.2954 5.6681 10.3548C5.78092 10.4122 5.9165 10.4409 6.07484 10.4409C6.26089 10.4409 6.41428 10.4112 6.53502 10.3518C6.65575 10.2924 6.74779 10.2043 6.81112 10.0876C6.87644 9.97078 6.91504 9.82531 6.92691 9.65113Z" fill="#FAAD14"/>
<path fill-rule="evenodd" clip-rule="evenodd" d="M6.39929 1.125V4.5C6.39929 4.67405 6.46843 4.84097 6.5915 4.96404C6.71457 5.08711 6.88149 5.15625 7.05554 5.15625H10.4305V12.875H1.68054V1.125H6.39929ZM7.8146 9.65113H6.9269C6.91502 9.82531 6.87643 9.97079 6.81111 10.0876C6.74777 10.2043 6.65574 10.2924 6.535 10.3518C6.41427 10.4112 6.26087 10.4409 6.07482 10.4409C5.91648 10.4409 5.7809 10.4122 5.66808 10.3548C5.55725 10.2954 5.4662 10.2083 5.39494 10.0935C5.32567 9.97672 5.27421 9.83422 5.24056 9.66598C5.20691 9.49576 5.19009 9.29882 5.19009 9.07517V8.76937C5.19009 8.53978 5.2079 8.33987 5.24353 8.16965C5.28114 7.99746 5.33755 7.85495 5.41276 7.74213C5.48797 7.62931 5.581 7.54519 5.69184 7.48977C5.80267 7.43435 5.93232 7.40664 6.08076 7.40664C6.27869 7.40664 6.43703 7.43831 6.55579 7.50165C6.67652 7.56301 6.76658 7.65504 6.82595 7.77776C6.88533 7.89849 6.91997 8.04595 6.92987 8.22012H7.82054C7.79283 7.92719 7.7097 7.66593 7.57115 7.43633C7.43458 7.20674 7.2416 7.02663 6.99221 6.89599C6.74481 6.76536 6.44099 6.70005 6.08076 6.70005C5.8096 6.70005 5.56417 6.74854 5.34447 6.84552C5.12477 6.94251 4.93576 7.08105 4.77741 7.26117C4.62105 7.44128 4.50032 7.65999 4.41521 7.9173C4.33208 8.17262 4.29051 8.45862 4.29051 8.77531V9.07517C4.29051 9.39185 4.33109 9.67785 4.41224 9.93318C4.49339 10.1885 4.61116 10.4062 4.76554 10.5863C4.9219 10.7665 5.10993 10.905 5.32963 11.002C5.54933 11.097 5.79773 11.1445 6.07482 11.1445C6.42911 11.1445 6.73194 11.0812 6.98331 10.9545C7.23665 10.8278 7.43359 10.6517 7.57412 10.426C7.71663 10.2004 7.79679 9.94209 7.8146 9.65113Z" fill="#FFF1B8"/>
</svg>
