<svg width="12" height="14" viewBox="0 0 12 14" fill="none" xmlns="http://www.w3.org/2000/svg">
<path d="M6.73267 4.5V1.125H2.01392V12.875H10.7639V5.15625H7.38892C7.21487 5.15625 7.04795 5.08711 6.92488 4.96404C6.80181 4.84097 6.73267 4.67405 6.73267 4.5ZM4.63892 5.28125C4.98423 5.28125 5.26392 5.56094 5.26392 5.90625C5.26392 6.25156 4.98423 6.53125 4.63892 6.53125C4.2936 6.53125 4.01392 6.25156 4.01392 5.90625C4.01392 5.56094 4.2936 5.28125 4.63892 5.28125ZM9.26392 9.875H3.51548C3.41079 9.875 3.35298 9.75469 3.41704 9.67344L4.97642 7.68594C4.98811 7.671 5.00305 7.65891 5.0201 7.65061C5.03716 7.6423 5.05588 7.63798 5.07485 7.63798C5.09383 7.63798 5.11255 7.6423 5.1296 7.65061C5.14666 7.65891 5.1616 7.671 5.17329 7.68594L5.81548 8.50469L7.0311 6.95469C7.04295 6.93972 7.05803 6.92764 7.07521 6.91933C7.0924 6.91102 7.11124 6.9067 7.13032 6.9067C7.14941 6.9067 7.16825 6.91102 7.18543 6.91933C7.20261 6.92764 7.21769 6.93972 7.22954 6.95469L9.36235 9.67344C9.42642 9.75469 9.3686 9.875 9.26392 9.875Z" fill="#E6F7FF"/>
<path d="M11.742 3.50938L8.37954 0.146875C8.28579 0.053125 8.15923 0 8.02642 0H1.38892C1.11235 0 0.888916 0.223438 0.888916 0.5V13.5C0.888916 13.7766 1.11235 14 1.38892 14H11.3889C11.6655 14 11.8889 13.7766 11.8889 13.5V3.86406C11.8889 3.73125 11.8358 3.60313 11.742 3.50938ZM7.79517 1.15313L10.7358 4.09375H7.79517V1.15313ZM10.7639 12.875H2.01392V1.125H6.73267V4.5C6.73267 4.67405 6.80181 4.84097 6.92488 4.96404C7.04795 5.08711 7.21487 5.15625 7.38892 5.15625H10.7639V12.875Z" fill="#1890FF"/>
<path d="M7.03123 6.95469L5.8156 8.5047L5.17341 7.68594C5.16172 7.671 5.14678 7.65892 5.12972 7.65061C5.11267 7.6423 5.09395 7.63798 5.07498 7.63798C5.056 7.63798 5.03728 7.6423 5.02023 7.65061C5.00317 7.65892 4.98823 7.671 4.97654 7.68594L3.41716 9.67345C3.40273 9.69187 3.39378 9.71398 3.39133 9.73726C3.38887 9.76053 3.39302 9.78402 3.40329 9.80504C3.41356 9.82607 3.42953 9.84378 3.44939 9.85616C3.46926 9.86853 3.4922 9.87506 3.5156 9.87501H9.26405C9.36873 9.87501 9.42655 9.7547 9.36248 9.67345L7.22967 6.95469C7.21782 6.93973 7.20274 6.92764 7.18556 6.91933C7.16837 6.91102 7.14953 6.9067 7.13045 6.9067C7.11136 6.9067 7.09252 6.91102 7.07534 6.91933C7.05816 6.92764 7.04308 6.93973 7.03123 6.95469ZM4.01404 5.90625C4.01404 6.07201 4.07988 6.23098 4.19709 6.34819C4.3143 6.4654 4.47328 6.53125 4.63904 6.53125C4.8048 6.53125 4.96377 6.4654 5.08098 6.34819C5.19819 6.23098 5.26404 6.07201 5.26404 5.90625C5.26404 5.74049 5.19819 5.58152 5.08098 5.46431C4.96377 5.3471 4.8048 5.28125 4.63904 5.28125C4.47328 5.28125 4.3143 5.3471 4.19709 5.46431C4.07988 5.58152 4.01404 5.74049 4.01404 5.90625Z" fill="#1890FF"/>
</svg>
