<svg width="12" height="14" viewBox="0 0 12 14" fill="none" xmlns="http://www.w3.org/2000/svg">
<path fill-rule="evenodd" clip-rule="evenodd" d="M6.44039 0.671808C6.13463 0.505825 5.76458 0.510682 5.46329 0.684634L0.578098 3.5051L5.93872 6.33432L11.2648 3.29082L6.44039 0.671808ZM5.44828 13.4493V7.20621L0.174744 4.42295V9.82729C0.174744 10.1846 0.365343 10.5147 0.674744 10.6933L5.44828 13.4493Z" fill="#5E6673"/>
<path fill-rule="evenodd" clip-rule="evenodd" d="M5.4655 0.683472C5.46476 0.683895 5.46403 0.684319 5.46329 0.684744L0.657839 3.45917C0.663434 3.4558 0.669069 3.45247 0.674744 3.44919L5.44825 0.693207C5.45397 0.689901 5.45973 0.686656 5.4655 0.683472ZM5.44828 13.4492L5.44835 13.4492V7.20609L0.174744 4.4228V4.42306L5.44828 7.20632V13.4492ZM6.44835 7.19478L11.7134 4.18617C11.7189 4.22864 11.7218 4.27173 11.7218 4.31522V9.82718C11.7218 10.1844 11.5312 10.5146 11.2218 10.6932L6.44835 13.4491V7.19478Z" fill="#5E6673" fill-opacity="0.5"/>
</svg>
