<svg width="12" height="14" viewBox="0 0 12 14" fill="none" xmlns="http://www.w3.org/2000/svg">
<path fill-rule="evenodd" clip-rule="evenodd" d="M6.32851 0.787805C6.02275 0.621822 5.6527 0.62668 5.35141 0.800631L0.466219 3.6211L5.82684 6.45032L11.153 3.40682L6.32851 0.787805ZM5.3364 13.5653V7.3222L0.0628662 4.53895V9.94329C0.0628662 10.3006 0.253464 10.6307 0.562865 10.8093L5.3364 13.5653Z" fill="#0079FF"/>
<path fill-rule="evenodd" clip-rule="evenodd" d="M5.35356 0.799469C5.35285 0.799881 5.35213 0.800294 5.35141 0.800708L0.545983 3.57512C0.551571 3.57175 0.557198 3.56843 0.562866 3.56516L5.33637 0.809172C5.34208 0.805877 5.34781 0.802642 5.35356 0.799469ZM5.3364 13.5652L5.33647 13.5652V7.32206L0.0628662 4.53877V4.53902L5.3364 7.32228V13.5652ZM6.33647 7.31074L11.6015 4.30214C11.607 4.3446 11.6099 4.38769 11.6099 4.43118V9.94315C11.6099 10.3004 11.4193 10.6305 11.1099 10.8092L6.33647 13.5651V7.31074Z" fill="#0079FF" fill-opacity="0.5"/>
</svg>
