<svg width="13" height="12" viewBox="0 0 13 12" fill="none" xmlns="http://www.w3.org/2000/svg">
<rect x="0.395935" y="0.166656" width="12" height="9.33333" rx="1" fill="#0079FF"/>
<path fill-rule="evenodd" clip-rule="evenodd" d="M3.56262 3.5C3.83876 3.5 4.06262 3.71412 4.06262 3.97826V7.02174C4.06262 7.28588 3.83876 7.5 3.56262 7.5C3.28648 7.5 3.06262 7.28588 3.06262 7.02174V3.97826C3.06262 3.71412 3.28648 3.5 3.56262 3.5Z" fill="white"/>
<path fill-rule="evenodd" clip-rule="evenodd" d="M6.39594 1.83331C6.67208 1.83331 6.89594 2.04744 6.89594 2.31157V7.02172C6.89594 7.28586 6.67208 7.49998 6.39594 7.49998C6.11979 7.49998 5.89594 7.28586 5.89594 7.02172V2.31157C5.89594 2.04744 6.11979 1.83331 6.39594 1.83331Z" fill="white"/>
<path fill-rule="evenodd" clip-rule="evenodd" d="M9.22925 4.83331C9.50539 4.83331 9.72925 5.04744 9.72925 5.31157V7.02172C9.72925 7.28586 9.50539 7.49998 9.22925 7.49998C8.95311 7.49998 8.72925 7.28586 8.72925 7.02172V5.31157C8.72925 5.04744 8.95311 4.83331 9.22925 4.83331Z" fill="white"/>
<rect x="3.39594" y="10.5" width="6" height="1.33333" rx="0.666667" fill="#0079FF" fill-opacity="0.5"/>
</svg>
