<svg width="13" height="12" viewBox="0 0 13 12" fill="none" xmlns="http://www.w3.org/2000/svg">
<rect x="0.614746" y="0.166656" width="12" height="9.33333" rx="1" fill="#5E6673"/>
<path fill-rule="evenodd" clip-rule="evenodd" d="M3.78143 3.5C4.05758 3.5 4.28143 3.71412 4.28143 3.97826V7.02174C4.28143 7.28588 4.05758 7.5 3.78143 7.5C3.50529 7.5 3.28143 7.28588 3.28143 7.02174V3.97826C3.28143 3.71412 3.50529 3.5 3.78143 3.5Z" fill="white"/>
<path fill-rule="evenodd" clip-rule="evenodd" d="M6.61475 1.83331C6.89089 1.83331 7.11475 2.04744 7.11475 2.31157V7.02172C7.11475 7.28586 6.89089 7.49998 6.61475 7.49998C6.3386 7.49998 6.11475 7.28586 6.11475 7.02172V2.31157C6.11475 2.04744 6.3386 1.83331 6.61475 1.83331Z" fill="white"/>
<path fill-rule="evenodd" clip-rule="evenodd" d="M9.44806 4.83331C9.7242 4.83331 9.94806 5.04744 9.94806 5.31157V7.02172C9.94806 7.28586 9.7242 7.49998 9.44806 7.49998C9.17192 7.49998 8.94806 7.28586 8.94806 7.02172V5.31157C8.94806 5.04744 9.17192 4.83331 9.44806 4.83331Z" fill="white"/>
<rect x="3.61475" y="10.5" width="6" height="1.33333" rx="0.666667" fill="#5E6673" fill-opacity="0.5"/>
</svg>
