<svg width="10" height="12" viewBox="0 0 10 12" fill="none" xmlns="http://www.w3.org/2000/svg">
<path fill-rule="evenodd" clip-rule="evenodd" d="M3.15105 7.97949H1.30194C0.79132 7.97949 0.37738 7.56555 0.37738 7.05493V1.50757C0.37738 0.996952 0.791319 0.583012 1.30194 0.583012H8.69842C9.20904 0.583012 9.62298 0.996951 9.62298 1.50757V7.05493C9.62298 7.56555 9.20904 7.97949 8.69842 7.97949H6.84929V6.13038C6.84929 5.10914 6.02141 4.28126 5.00017 4.28126C3.97893 4.28126 3.15105 5.10914 3.15105 6.13038V7.97949Z" fill="#FAAD14"/>
<path d="M4.07568 9.82861C4.07568 10.3392 4.48962 10.7532 5.00024 10.7532C5.51086 10.7532 5.9248 10.3392 5.9248 9.82861V6.13037C5.9248 5.61975 5.51086 5.20581 5.00024 5.20581C4.48962 5.20581 4.07568 5.61975 4.07568 6.13037V9.82861Z" fill="#FAAD14"/>
<path d="M5.00016 11.4164L7.40224 8.92034H2.59808L5.00016 11.4164Z" fill="#FAAD14"/>
</svg>
