<svg width="16" height="16" viewBox="0 0 16 16" fill="none" xmlns="http://www.w3.org/2000/svg">
<rect width="16" height="16" rx="2" fill="#F6FFED"/>
<path fill-rule="evenodd" clip-rule="evenodd" d="M4.30194 6.02026C3.79132 6.02026 3.37738 6.4342 3.37738 6.94482V12.4922C3.37738 13.0028 3.79132 13.4167 4.30194 13.4167H11.6984C12.209 13.4167 12.623 13.0028 12.623 12.4922V6.94482C12.623 6.4342 12.209 6.02026 11.6984 6.02026H4.30194ZM9.84929 6.02029H6.15105V7.86941C6.15105 8.89065 6.97893 9.71853 8.00017 9.71853C9.02141 9.71853 9.84929 8.89066 9.84929 7.86941V6.02029Z" fill="#52C41A"/>
<path d="M7.0757 4.17114C7.0757 3.66052 7.48964 3.24658 8.00026 3.24658C8.51088 3.24658 8.92482 3.66052 8.92482 4.17114V7.86938C8.92482 8.38 8.51088 8.79394 8.00026 8.79394C7.48964 8.79394 7.0757 8.38 7.0757 7.86938V4.17114Z" fill="#52C41A"/>
<path d="M8.0001 2.5835L10.4022 5.07954H5.59802L8.0001 2.5835Z" fill="#52C41A"/>
</svg>
