<svg width="14" height="14" viewBox="0 0 14 14" fill="none" xmlns="http://www.w3.org/2000/svg">
<path d="M6.99963 10.7357L1.7012 6.5888C1.61995 6.52474 1.49963 6.58255 1.49963 6.68724L1.49963 7.89505C1.49963 7.97161 1.53557 8.04505 1.59495 8.09193L6.69182 12.081C6.77985 12.1501 6.88851 12.1876 7.00041 12.1876C7.11232 12.1876 7.22098 12.1501 7.30901 12.081L12.4043 8.09193C12.4653 8.04505 12.4996 7.97161 12.4996 7.89505V6.68724C12.4996 6.58255 12.3793 6.52474 12.2981 6.5888L6.99963 10.7357ZM6.99963 5.98567L1.7012 1.8388C1.61995 1.77474 1.49963 1.83255 1.49963 1.93724L1.49963 3.14505C1.49963 3.22161 1.53557 3.29505 1.59495 3.34193L6.69182 7.33099C6.77985 7.40007 6.88851 7.43762 7.00041 7.43762C7.11232 7.43762 7.22098 7.40007 7.30901 7.33099L12.4043 3.34193C12.4653 3.29505 12.4996 3.22161 12.4996 3.14505V1.93724C12.4996 1.83255 12.3793 1.77474 12.2981 1.8388L6.99963 5.98567Z" fill="#2994FF"/>
</svg>
